# xmcd
#
# Track frame offsets:
#	150
#	9888
#	18812
#	31117
#	44662
#	57389
#	73039
#	85251
#	100137
#	111435
#	123132
#	133904
#	144777
#	156841
#	168558
#	181432
#	195711
#	212836
#	231969
#	250128
#
# Disc length: 3467 seconds
#
# Revision: 0
# Processed by: cddbd v1.5.2PL0 Copyright (c) Steve Scherf et al.
# Submitted via: EasyCDDAExtractor 12.0.1.1
#
DISCID=130d8914
DTITLE=Various Artist - The Ultimate Ballroom Album 10 CD2
DYEAR=0
DGENRE=Dance
TTITLE0=Andy Williams - EW 29 - Remember
TTITLE1=Jim Reeves - EW 29 - Ramona
TTITLE2=Acker Bilk and The Leon Strings - EW 29 - Greensleeves
TTITLE3=Julie London - EW 29 - Say Wonderful Things
TTITLE4=Andy Williams - EW 29 - I Really Do Not Want To Know
TTITLE5=Eddy Arnold - EW 29 - Somebody Loves You
TTITLE6=The World Strings Orch. - EW 29 - Yearning For You
TTITLE7=Kenny Rogers - EW 29 - If You Were A Painting
TTITLE8=Jim Reeves - EW 29 - Maria Elena
TTITLE9=Pat Boone - EW 29 - Amazing Grace
TTITLE10=Prague Philharmonic Orch. - WW 58 - The Potter Waltz
TTITLE11=The World Strings Orch. - WW 59 - The Melba Waltz
TTITLE12=The World Strings Orch. - WW 60 - The Belle Of The Ball
TTITLE13=Orch. Sentimentia - TG 32 - Nueve De Julio
TTITLE14=Orch. Sentimentia - TG 32 - Canaro En Paris
TTITLE15=Orch. El Choclo - TG 32 - Delusion
TTITLE16=Otros Aires - TG 31 - Sin Rumbo
TTITLE17=Otros Aires - TG 31 - El Direccion A Mi Casa
TTITLE18=Otros Aires - TG 31 - La Pampa Seca
TTITLE19=The Tango Project - TG 32 - Por Una Cabeza
EXTD=
EXTT0=
EXTT1=
EXTT2=
EXTT3=
EXTT4=
EXTT5=
EXTT6=
EXTT7=
EXTT8=
EXTT9=
EXTT10=
EXTT11=
EXTT12=
EXTT13=
EXTT14=
EXTT15=
EXTT16=
EXTT17=
EXTT18=
EXTT19=
PLAYORDER=
